PathFileType	4	(X/Y/Z)	RBDS012\RBDS012runT45.trc
DataRate	CameraRate	NumFrames	NumMarkers	Units	OrigDataRate	OrigDataStartFrame	OrigNumFrames
150.000000	150.000000	4	33	mm	150.000000	3937	4500
Frame#	Time	L.ASIS			L.Heel.Bottom			L.Heel.Lateral			L.Heel.Top			L.Iliac.Crest			L.MT1			L.MT5			L.PSIS			L.Shank.Bottom.Lateral			L.Shank.Bottom.Medial			L.Shank.Top.Lateral			L.Shank.Top.Medial			L.Thigh.Bottom.Lateral			L.Thigh.Bottom.Medial			L.Thigh.Top.Lateral			L.Thigh.Top.Medial			R.ASIS			R.ASY			R.Heel.Bottom			R.Heel.Lateral			R.Heel.Top			R.Iliac.Crest			R.MT1			R.MT5			R.PSIS			R.Shank.Bottom.Lateral			R.Shank.Bottom.Medial			R.Shank.Top.Lateral			R.Shank.Top.Medial			R.Thigh.Bottom.Lateral			R.Thigh.Bottom.Medial			R.Thigh.Top.Lateral			R.Thigh.Top.Medial			
		X1	Y1	Z1	X2	Y2	Z2	X3	Y3	Z3	X4	Y4	Z4	X5	Y5	Z5	X6	Y6	Z6	X7	Y7	Z7	X8	Y8	Z8	X9	Y9	Z9	X10	Y10	Z10	X11	Y11	Z11	X12	Y12	Z12	X13	Y13	Z13	X14	Y14	Z14	X15	Y15	Z15	X16	Y16	Z16	X17	Y17	Z17	X18	Y18	Z18	X19	Y19	Z19	X20	Y20	Z20	X21	Y21	Z21	X22	Y22	Z22	X23	Y23	Z23	X24	Y24	Z24	X25	Y25	Z25	X26	Y26	Z26	X27	Y27	Z27	X28	Y28	Z28	X29	Y29	Z29	X30	Y30	Z30	X31	Y31	Z31	X32	Y32	Z32	X33	Y33	Z33	

3938	26.24666666666667	2289.072578596179	979.1753005812317	893.7211848979467	1602.355284066052	240.5943881594565	977.3362737372281	1626.963993315982	224.2522533340849	928.4999837139507	1647.387135330085	263.0286504727177	972.5368750432192	2275.735977462752	1054.954232397835	873.01014971	1739.385805394353	57.21735396542745	1011.91542995433	1723.101791020532	91.854850602052	893.1544847855713	2135.81977853069	1060.428735877055	979.6916329446415	1754.187611718734	281.5087903304935	910.7383893200204	1723.230862284031	309.5882403592311	947.4130527622378	1797.428494850538	348.1892447808879	896.8913184645977	1767.964115089944	376.2861648840055	932.2037763476502	2071.356681693434	629.6258178921108	868.5701551617841	2009.450382612683	655.0337779563597	897.7453931198571	2100.707738652416	734.6645620848914	849.7504619565399	2045.42184245064	758.4164878468658	882.6331391261444	2291.104994617145	1010.737362940287	1161.917360810014	2354.237884620189	158.1683315105924	1074.813336827701	2152.277985361683	174.3180235935739	1061.019319716518	2177.107722971547	182.3184711560974	1098.698345188724	2181.032358929771	216.306828931699	1060.046630174013	2247.177622452634	1081.991697812527	1198.463246945875	2366.65310812759	102.6627074851653	1028.163698674113	2335.139648882525	111.671026561906	1142.50102067015	2130.203750219418	1062.513856931407	1088.346392079598	2280.618408059876	282.0438854702147	1121.433417389234	2248.585947079533	307.5358205346257	1089.865357638146	2315.513783487823	356.7005074855668	1143.330543270143	2278.900444230697	380.0515877984654	1111.347006272906	2407.33931230613	665.8728791574939	1189.219695681728	2357.601886768389	630.020498871321	1148.978304442596	2332.955320421334	744.1836574306129	1205.478760324642	2285.149639963383	710.9284523434663	1167.992503791861	
3939	26.25333333333333	2291.371734652686	982.2906620519756	893.962663996709	1588.458056445047	261.187157617355	977.8638144268599	1612.163330986871	243.9916214702776	928.8746130817516	1634.784190929171	281.2904024574795	973.0864410635814	2281.058627382239	1058.45522989417	874.551659783295	1716.690423054153	69.29393857293351	1010.168845487626	1701.39078911435	106.0233974938987	892.1764933243617	2138.569870680255	1063.657062343036	978.3647507557657	1740.151458526434	295.0392102773432	910.597236269894	1710.258476661397	323.685032540214	947.7605684139862	1784.994774239408	360.6407441053407	896.8660327444752	1756.534473835638	389.2318794401974	932.5854856102416	2066.740993158312	634.9840178903751	869.1345241850937	2005.215599566529	661.9952856861736	897.8464913354881	2098.632027107174	739.248217720378	849.8056542924586	2043.621447520664	764.4772395480065	882.1710772670968	2293.842150794334	1014.931608412558	1160.906973232743	2389.748310907412	152.2348281014944	1075.969401107378	2188.165889777093	149.6390623064383	1060.64103590979	2211.725411022036	159.7733732797816	1098.577100834286	2212.726401082143	193.9535966803165	1060.129352068376	2248.950776202006	1085.884247129404	1198.669223815711	2407.480971658764	98.69808708488107	1029.320008103919	2374.773978398775	104.2572557938411	1143.391225086563	2132.788701431321	1065.754632282928	1087.317624396484	2305.432271980804	268.9620355474307	1121.670564226807	2271.898248418699	291.8522627730726	1089.800082546876	2334.045827401763	345.9625921409711	1143.706287002026	2296.120899464029	366.4028883989103	1111.296445282223	2406.804838592821	666.5894836070361	1188.050487512123	2356.084980310522	630.1583087028307	1149.392992848036	2333.237966903459	745.829992290768	1203.53577871059	2284.778879009266	712.1582506552066	1167.233798627386	
3940	26.26	2293.340563952385	985.0189370184618	894.2788261544323	1574.990756723689	282.6606176247926	979.056455592682	1597.647850187271	264.7919916921064	929.8474306683393	1622.374219736021	300.5114898228057	974.202693532814	2285.457613575126	1061.755847388171	875.951476660668	1694.568859683467	83.37541739438818	1008.729034275556	1679.988892496831	122.1726640556576	891.4901887115369	2141.077551329956	1066.746971529937	977.1091716607111	1726.59373401102	309.4395799622895	910.8353952680581	1697.994485772751	338.8970223762894	948.3990852799325	1773.477775340779	373.5311873253497	897.0868703404506	1746.23640268069	402.8532306663697	933.1277951804088	2063.715903340468	639.4341094904786	869.5550863766307	2002.396169716579	667.6775034117888	897.6587998207123	2097.556110373891	743.0265289021698	849.7599433532014	2042.637786022477	769.4051063819419	881.4304951774267	2296.340013819779	1018.438608268908	1160.023541240543	2424.434984851879	148.2267179197912	1077.426940088819	2225.032200071905	126.7546727910253	1060.862120320951	2247.182267981948	138.8497837721463	1099.043533075838	2245.134148884237	173.0224424276791	1060.873741083514	2250.770826429	1088.990485944902	1198.863387826095	2447.279379428041	97.31766660739991	1030.658768780885	2413.878623675256	99.01543297334766	1144.551471137419	2135.278481813195	1068.590733813194	1086.356117874909	2330.107451303042	256.9092529594529	1122.335223019884	2295.328899328243	277.1101805807252	1090.179194849671	2352.27753259123	335.6877340050356	1144.494508591921	2313.331301254164	353.125756098388	1111.664202112321	2405.327716969772	665.7242511265747	1187.192169274479	2353.787163005473	629.0586998641369	1149.667768742814	2332.743176036613	746.0597439616993	1201.842174426441	2283.700279183262	712.2038260149515	1166.426349994934	
3941	26.26666666666667	2295.012456157014	987.3110596131677	894.6370408966629	1562.080328100915	305.0871311576986	980.7980331233355	1583.554378864944	286.6481191741286	931.3252001471573	1610.308494317058	320.7207958656792	975.7787423662046	2288.872982182587	1064.819499416081	877.1542427147887	1672.943782839301	99.44814379180259	1007.717280729129	1658.952180532408	140.1632184770363	891.1578372317603	2143.340998787156	1069.626676004795	976.0216194484561	1713.605153409734	324.6928481372962	911.4016200540266	1686.534936562226	355.1805436696976	949.2743759068874	1762.923363141152	386.8236147029589	897.5153438013116	1737.124336892646	417.0881092433313	933.7968085412515	2062.230799607929	642.8539120882798	869.8181416153664	2000.931387859873	671.9697250268805	897.179881482017	2097.451794800562	745.9068790828381	849.6207580606476	2042.439402051652	773.1144389241215	880.4393303973528	2298.523471271744	1021.15748427355	1159.277158382918	2457.887235930755	146.0470922811831	1079.181565321139	2262.286661086382	105.893686970962	1061.646708674623	2282.93370059145	119.7625823570856	1100.064042103649	2277.754732787575	153.7352816036508	1062.234237565031	2252.591482248204	1091.256849141143	1199.034157353924	2485.559961296579	98.32186858899169	1032.18043099256	2451.960481717909	95.87510186458032	1145.977637436235	2137.62983729368	1070.970944436649	1085.545028530534	2354.322155682823	245.9908050808217	1123.399913528621	2318.542826963342	263.4334091184403	1090.963931947881	2369.97170275429	326.0183750768895	1145.639891528542	2330.274551187491	340.3812885511082	1112.401520374475	2403.024572365709	663.3655505532506	1186.658408760401	2350.870910127746	626.8513969910772	1149.72607724094	2331.545024636566	744.8973220608632	1200.496189397138	2282.030349664838	711.140860887346	1165.579937662456	
